<svg xmlns="http://www.w3.org/2000/svg" width="1200" height="630" viewBox="0 0 1200 630">
  <defs>
    <linearGradient id="bg" x1="0%" y1="0%" x2="100%" y2="100%">
      <stop offset="0%" style="stop-color:#0a0e1a"/>
      <stop offset="100%" style="stop-color:#1a1040"/>
    </linearGradient>
    <linearGradient id="accent" x1="0%" y1="0%" x2="100%" y2="0%">
      <stop offset="0%" style="stop-color:#6366f1"/>
      <stop offset="100%" style="stop-color:#8b5cf6"/>
    </linearGradient>
  </defs>
  <rect width="1200" height="630" fill="url(#bg)"/>
  <rect x="0" y="600" width="1200" height="30" fill="url(#accent)" opacity="0.6"/>
  <!-- Shield icon -->
  <g transform="translate(540, 120) scale(4)" fill="none" stroke="#6366f1" stroke-width="2" stroke-linecap="round" stroke-linejoin="round">
    <path d="M20 13c0 5-3.5 7.5-7.66 8.95a1 1 0 0 1-.67-.01C7.5 20.5 4 18 4 13V6a1 1 0 0 1 1-1c2 0 4.5-1.2 6.24-2.72a1.17 1.17 0 0 1 1.52 0C14.51 3.81 17 5 19 5a1 1 0 0 1 1 1z"/>
  </g>
  <!-- Title -->
  <text x="600" y="360" text-anchor="middle" font-family="system-ui, -apple-system, sans-serif" font-weight="700" font-size="56" fill="white">Only Once Share</text>
  <!-- Subtitle -->
  <text x="600" y="420" text-anchor="middle" font-family="system-ui, -apple-system, sans-serif" font-weight="400" font-size="28" fill="#94a3b8">Secure One-Time Secret Sharing</text>
  <!-- Features -->
  <text x="600" y="500" text-anchor="middle" font-family="system-ui, -apple-system, sans-serif" font-weight="400" font-size="20" fill="#6366f1">End-to-End Encrypted  ·  Zero-Knowledge  ·  Self-Destructing Links</text>
  <!-- URL -->
  <text x="600" y="560" text-anchor="middle" font-family="system-ui, -apple-system, sans-serif" font-weight="500" font-size="22" fill="#64748b">ooshare.io</text>
</svg>
